<svg preserveAspectRatio="none" overflow="visible" style="display: block;" width="34.0773" height="9.92431" viewBox="0 0 34.0773 9.92431" fill="none" xmlns="http://www.w3.org/2000/svg">
<g id="Frame 389">
<g id="Kinage">
<path d="M0.670218 7.94711V0.816195H2.22605V4.0035C2.5934 3.85223 2.93554 3.66136 3.25247 3.43086C3.5766 3.19317 3.86472 2.93026 4.11682 2.64214C4.36893 2.35402 4.58502 2.0551 4.76509 1.74537C4.94516 1.43565 5.07482 1.12592 5.15405 0.816195H6.93678C6.83594 1.16914 6.68107 1.52208 6.47219 1.87503C6.2705 2.22077 6.02921 2.5485 5.74829 2.85823C5.46738 3.16795 5.16845 3.44527 4.85152 3.69017C4.5418 3.92786 4.22847 4.11514 3.91154 4.252V4.41406C4.24288 4.41406 4.5382 4.45368 4.7975 4.53291C5.06401 4.60494 5.29811 4.72379 5.49979 4.88946C5.70868 5.04792 5.89235 5.246 6.05081 5.4837C6.20928 5.7214 6.34974 6.00591 6.47219 6.33725L7.04482 7.94711H5.2837L4.90555 6.65058C4.80471 6.29763 4.67145 6.01672 4.50578 5.80783C4.34012 5.59174 4.12763 5.43688 3.86832 5.34324C3.60902 5.2424 3.27048 5.19198 2.85271 5.19198H2.22605V7.94711H0.670218Z" fill="#673872"/>
<path d="M7.60099 7.94711V2.27479H9.15683V7.94711H7.60099Z" fill="#673872"/>
<path d="M10.1654 7.94711V2.27479H11.4403L11.4295 3.97108H11.6456C11.7392 3.56051 11.8724 3.21838 12.0453 2.94466C12.2182 2.67095 12.4343 2.46567 12.6936 2.32881C12.9601 2.19196 13.2734 2.12353 13.6336 2.12353C14.289 2.12353 14.786 2.35402 15.1246 2.81501C15.4703 3.276 15.6432 3.99989 15.6432 4.9867V7.94711H14.0766V5.15957C14.0766 4.55452 13.9865 4.11514 13.8064 3.84143C13.6336 3.56051 13.3779 3.42006 13.0393 3.42006C12.7512 3.42006 12.5099 3.51009 12.3154 3.69017C12.121 3.87024 11.9733 4.10794 11.8724 4.40326C11.7788 4.69138 11.7284 5.01551 11.7212 5.37566V7.94711H10.1654Z" fill="#673872"/>
<path d="M17.8782 8.09837C17.5613 8.09837 17.2803 8.03714 17.0354 7.91469C16.7905 7.78504 16.5997 7.60136 16.4628 7.36367C16.3259 7.12597 16.2575 6.83065 16.2575 6.47771C16.2575 6.16798 16.3151 5.90867 16.4304 5.69979C16.5528 5.4909 16.7293 5.32163 16.9598 5.19198C17.1903 5.06233 17.4748 4.95428 17.8134 4.86785C18.1519 4.78141 18.5373 4.70578 18.9694 4.64096C19.1999 4.60494 19.3872 4.57253 19.5313 4.54372C19.6825 4.5077 19.7942 4.45368 19.8662 4.38165C19.9382 4.30242 19.9742 4.19077 19.9742 4.04671C19.9742 3.84503 19.9022 3.67216 19.7581 3.5281C19.6141 3.38404 19.3872 3.31201 19.0775 3.31201C18.8686 3.31201 18.6741 3.34803 18.494 3.42006C18.3212 3.49209 18.1699 3.60013 18.0402 3.74419C17.9178 3.88825 17.8278 4.07192 17.7701 4.29521L16.398 3.87384C16.4844 3.57852 16.6069 3.32282 16.7653 3.10673C16.931 2.89064 17.1291 2.71057 17.3596 2.56651C17.5901 2.41525 17.853 2.3036 18.1483 2.23157C18.4436 2.15954 18.7641 2.12353 19.1099 2.12353C19.6645 2.12353 20.1147 2.21357 20.4604 2.39364C20.8134 2.56651 21.0763 2.84022 21.2492 3.21477C21.422 3.58212 21.5085 4.05752 21.5085 4.64096V5.61335C21.5085 5.86546 21.5121 6.12116 21.5193 6.38047C21.5337 6.63977 21.5481 6.90268 21.5625 7.16919C21.5841 7.42849 21.6057 7.6878 21.6273 7.94711H20.2552C20.2263 7.76703 20.1975 7.56175 20.1687 7.33125C20.1471 7.09356 20.1291 6.85586 20.1147 6.61816H19.9202C19.8194 6.89188 19.6753 7.14038 19.488 7.36367C19.3008 7.58696 19.0703 7.76703 18.7966 7.90389C18.53 8.03354 18.2239 8.09837 17.8782 8.09837ZM18.5373 6.97471C18.6741 6.97471 18.811 6.9495 18.9478 6.89908C19.0919 6.84866 19.2287 6.78023 19.3584 6.69379C19.4952 6.60016 19.6177 6.48491 19.7257 6.34805C19.841 6.2112 19.9346 6.05633 20.0067 5.88346L19.985 4.97589L20.2335 5.02992C20.1039 5.12355 19.9526 5.19918 19.7798 5.25681C19.6069 5.30723 19.4268 5.34684 19.2395 5.37566C19.0595 5.40447 18.8794 5.43688 18.6993 5.4729C18.5192 5.50891 18.3572 5.55573 18.2131 5.61335C18.0763 5.67098 17.9646 5.75021 17.8782 5.85105C17.7989 5.94469 17.7593 6.07794 17.7593 6.25081C17.7593 6.4741 17.8314 6.65058 17.9754 6.78023C18.1195 6.90988 18.3068 6.97471 18.5373 6.97471Z" fill="#673872"/>
<path d="M24.6845 9.92431C24.0651 9.92431 23.5537 9.87389 23.1503 9.77305C22.7541 9.67941 22.4624 9.53896 22.2752 9.35168C22.0879 9.1644 21.9942 8.93031 21.9942 8.64939C21.9942 8.31806 22.1239 8.04795 22.3832 7.83906C22.6497 7.63018 23.0387 7.50412 23.5501 7.46091V7.24482C23.1611 7.24482 22.8622 7.2052 22.6533 7.12597C22.4444 7.03954 22.34 6.89188 22.34 6.68299C22.34 6.48131 22.4408 6.30123 22.6425 6.14277C22.8514 5.9843 23.1935 5.85825 23.6689 5.76461V5.54853C23.2223 5.51971 22.873 5.37566 22.6209 5.11635C22.3688 4.85704 22.2427 4.52211 22.2427 4.11154C22.2427 3.75139 22.3436 3.43086 22.5453 3.14995C22.7469 2.86183 23.0459 2.63494 23.442 2.46927C23.8454 2.2964 24.3388 2.20996 24.9222 2.20996H27.7962V3.39845L26.0135 3.14995V3.39845C26.4745 3.46328 26.8058 3.57852 27.0075 3.74419C27.2164 3.90986 27.3208 4.14035 27.3208 4.43567C27.3208 4.73099 27.2236 4.9903 27.0291 5.21359C26.8346 5.43688 26.5573 5.61335 26.1972 5.74301C25.8442 5.86546 25.4192 5.92668 24.9222 5.92668C24.8286 5.92668 24.7278 5.92308 24.6197 5.91588C24.5117 5.90867 24.3316 5.89067 24.0795 5.86185C23.9426 5.9627 23.8346 6.05273 23.7554 6.13196C23.6833 6.20399 23.6473 6.27242 23.6473 6.33725C23.6473 6.38767 23.6725 6.43089 23.7229 6.4669C23.7806 6.50292 23.8526 6.52813 23.939 6.54253C24.0327 6.55694 24.1263 6.56414 24.2199 6.56414H25.8406C25.9847 6.56414 26.1719 6.57495 26.4024 6.59655C26.6329 6.61096 26.8634 6.66498 27.0939 6.75862C27.3244 6.85226 27.5189 7.00352 27.6774 7.21241C27.8358 7.41409 27.9151 7.70581 27.9151 8.08756C27.9151 8.50533 27.7962 8.85107 27.5585 9.12479C27.328 9.3985 26.9715 9.60018 26.4889 9.72983C26.0135 9.85949 25.412 9.92431 24.6845 9.92431ZM24.8574 8.68181C25.2968 8.68181 25.6389 8.6566 25.8838 8.60618C26.1287 8.56296 26.3016 8.48733 26.4024 8.37928C26.5105 8.27844 26.5645 8.14879 26.5645 7.99032C26.5645 7.84626 26.5321 7.73462 26.4673 7.65539C26.4096 7.57615 26.3304 7.52213 26.2296 7.49332C26.1359 7.45731 26.0387 7.4357 25.9378 7.42849C25.8442 7.41409 25.7614 7.40689 25.6893 7.40689H24.328C24.0255 7.4357 23.8058 7.51853 23.6689 7.65539C23.5393 7.78504 23.4744 7.9363 23.4744 8.10917C23.4744 8.26764 23.5249 8.38648 23.6257 8.46572C23.7265 8.54495 23.8778 8.59897 24.0795 8.62778C24.2884 8.6638 24.5477 8.68181 24.8574 8.68181ZM24.8358 5.11635C25.1815 5.11635 25.4408 5.03352 25.6137 4.86785C25.7866 4.69498 25.873 4.47169 25.873 4.19798C25.873 3.90986 25.783 3.67216 25.6029 3.48488C25.43 3.29761 25.1743 3.20397 24.8358 3.20397C24.5045 3.20397 24.2452 3.29761 24.0579 3.48488C23.8706 3.66496 23.777 3.89905 23.777 4.18717C23.777 4.36724 23.8166 4.52931 23.8958 4.67337C23.9823 4.81023 24.1047 4.91827 24.2632 4.9975C24.4216 5.07673 24.6125 5.11635 24.8358 5.11635Z" fill="#673872"/>
<path d="M31.0142 8.09837C30.546 8.09837 30.1283 8.03354 29.7609 7.90389C29.4008 7.77424 29.0947 7.58696 28.8425 7.34206C28.5904 7.09716 28.396 6.79463 28.2591 6.43449C28.1295 6.07434 28.0646 5.66738 28.0646 5.21359C28.0646 4.76701 28.1259 4.35644 28.2483 3.98189C28.378 3.60013 28.5652 3.2724 28.8101 2.99869C29.055 2.71777 29.354 2.50168 29.7069 2.35042C30.0598 2.19916 30.4596 2.12353 30.9062 2.12353C31.3384 2.12353 31.7237 2.19556 32.0623 2.33962C32.4008 2.47647 32.6817 2.68536 32.905 2.96627C33.1355 3.24719 33.3012 3.59293 33.402 4.0035C33.5101 4.40686 33.5497 4.87145 33.5209 5.39726L29.0694 5.44048V4.58693L32.6241 4.55452L32.0731 4.9867C32.1235 4.60494 32.0983 4.29161 31.9974 4.04671C31.8966 3.80181 31.7489 3.62174 31.5545 3.50649C31.3672 3.39125 31.1583 3.33362 30.9278 3.33362C30.6541 3.33362 30.4128 3.40565 30.2039 3.54971C29.995 3.69377 29.833 3.90626 29.7177 4.18717C29.6025 4.46088 29.5448 4.79222 29.5448 5.18118C29.5448 5.79343 29.6781 6.24361 29.9446 6.53173C30.2183 6.81985 30.5749 6.9639 31.0142 6.9639C31.2159 6.9639 31.3852 6.93869 31.522 6.88827C31.6661 6.83065 31.7813 6.75862 31.8678 6.67219C31.9614 6.58575 32.0334 6.48851 32.0839 6.38047C32.1415 6.27242 32.1883 6.16438 32.2243 6.05633L33.5749 6.34805C33.5101 6.61456 33.4128 6.85586 33.2832 7.07195C33.1607 7.28083 32.995 7.46451 32.7862 7.62297C32.5773 7.77424 32.3252 7.88948 32.0298 7.96871C31.7417 8.05515 31.4032 8.09837 31.0142 8.09837Z" fill="#673872"/>
</g>
<path id="Rectangle 105" d="M7.64144 -6.68366e-09C8.47898 2.99264e-08 9.15794 0.67896 9.15794 1.5165L7.60083 1.5165L7.60083 -8.45879e-09L7.64144 -6.68366e-09Z" fill="#673872"/>
</g>
</svg>
